#!OML:ASF F:\VICON\USERDATA\INSTALL\rory3\rory3.ASF
:FULLY-SPECIFIED
:DEGREES
90
root 0.15737008516716738 17.753131588762002 42.01096399859964 -3.911805060066249 -6.161840261244463 -3.0078798448879485
lfemur -19.75604731388409 -1.7344461378114326 -18.96426644739056
ltibia 36.80448456591814
lfoot -4.686089253334066 -0.7685130698928224
ltoes -4.834090649586706
rfemur -3.6736485493401663 3.4934328985443868 25.692628632450713
rtibia 45.75279355595633
rfoot -5.452482088346535 -5.923406288286187
rtoes 3.571407042901696
lowerback 9.761924258280906 1.6511325675924193 1.456487076939096
upperback 0.3995910334789462 3.4773907168849973 1.2043226719095448
thorax -4.8923709026768964 1.150736416400357 -0.25736586796276983
lowerneck -16.724612620692234 -2.8096999531476134 -1.9636426442830097
upperneck 20.113323711950574 -3.5271917815959006 1.534397427082561
head 9.157348076961457 -1.722356743318838 0.3797359721563642
lclavicle -1.9523119754202365e-15 9.076245054290994e-16
lhumerus -38.04674478523605 8.203778576462838 80.63459961145514
lradius 23.286267570014545
lwrist 3.3949641294388178
lhand -27.34901008723189 22.887684664504842
lfingers 7.12502
lthumb -0.3835939416155464 53.8539318605829
rclavicle -1.9542094016606027e-15 9.05876995281991e-16
rhumerus -26.35761139452552 -16.439780301544246 -81.07056941647201
rradius 25.949128667892687
rwrist 4.971353568177682
rhand -17.87013883991268 22.42410228377198
rfingers 7.12502
rthumb 8.388717656590293 -7.208941026278469
91
root 0.1837210439502237 17.798812408358092 42.42751014959864 -4.186647663967086 -5.70446951948969 -2.164054198036574
lfemur -16.421874743653255 -1.775554999111391 -20.994356176369568
ltibia 35.75457017731571
lfoot -4.8462311789221255 -0.36814906032165534
ltoes -4.838704358462753
rfemur -6.9035034869478045 2.9676361739490815 24.630660271142666
rtibia 47.35615427230419
rfoot -5.167969452758667 -6.154396598789959
rtoes 3.6582688121298093
lowerback 9.900786065971335 1.5032520277546102 1.0162302698657686
upperback 0.457649343946827 3.13239120216433 1.016223429118499
thorax -4.893528216676079 1.0582684099978241 0.06992456321716745
lowerneck -16.694458633882775 -2.809504231215523 -1.9435160077211846
upperneck 20.096753236645217 -3.534908827176596 1.5313618165923275
head 9.145272821801422 -1.7265718887739236 0.3660524961897748
lclavicle -1.952311975420237e-15 9.076245054290994e-16
lhumerus -37.522535177872776 7.323671403319992 80.98306569072598
lradius 23.555106093140648
lwrist 3.653384017620846
lhand -27.21029626923678 23.219071670707542
lfingers 7.12502
lthumb -0.38468169488606346 53.87493307265314
rclavicle -1.9542094016606027e-15 9.058769952819911e-16
rhumerus -26.767188090953642 -17.13772153736116 -80.7719022286957
rradius 25.94390587582708
rwrist 5.12714543220472
rhand -17.819089133723374 22.555436299728733
rfingers 7.12502
rthumb 8.383273222823867 -7.2218006880160175
92
root 0.20547254302881904 17.832363817477844 43.19107731814022 -4.33817028136013 -4.982210013294894 -1.5009177827475262
lfemur -13.414882381397343 -1.8879296278806628 -22.192677459430193
ltibia 34.57664843928673
lfoot -4.555822170585304 -0.05755465751952804
ltoes -4.58208268141764
rfemur -10.263860747244156 2.5714919002135526 23.77305507237216
rtibia 48.2763333948038
rfoot -5.202099760238724 -6.2230389825215955
rtoes 3.5140297252232955
lowerback 9.980003048456387 1.2809193213222445 0.5259903054193121
upperback 0.5149982566814914 2.727296849371447 0.8833379627358785
thorax -4.911102847761361 0.906138359772519 0.24526484526333658
lowerneck -16.69870700909435 -2.8151831050511644 -1.938324635549206
upperneck 20.04764364715754 -3.5618278370152416 1.4918111813354407
head 9.133036026234661 -1.732904544454274 0.3594486811754249
lclavicle -1.9523119754202365e-15 9.076245054290994e-16
lhumerus -36.649547570301095 6.141149896049039 81.42730909956748
lradius 23.849385752611504
lwrist 3.8677953845137063
lhand -27.33652069038267 22.906318803114498
lfingers 7.12502
lthumb -0.4243613829465729 53.77781368550999
rclavicle -1.9542094016606027e-15 9.058769952819911e-16
rhumerus -27.390900327469375 -17.8606127834574 -80.5508621209888
rradius 25.850216393395787
rwrist 5.064504593371653
rhand -17.79413590338169 22.6119434921531
rfingers 7.12502
rthumb 8.375067158653893 -7.24583892620325
93
root 0.2161748386835639 17.845012582291318 43.97684122510807 -4.381143606984104 -4.138330505493531 -0.9858008030255743
lfemur -10.368265929098191 -2.162462409929817 -23.18185499720168
ltibia 33.377075625512205
lfoot -4.708677142295874 0.027314998896582066
ltoes -4.520339215074764
rfemur -13.338246494054289 2.2936407302507584 23.081216774117642
rtibia 48.31431655210923
rfoot -5.451140212300235 -6.154364560409147
rtoes 3.1237912036149678
lowerback 10.040121535256214 1.0556933495484966 0.1030197268262123
upperback 0.587703159853912 2.380738556236774 0.866641214809098
thorax -4.899619026664852 0.7927679331366662 0.5845447811373259
lowerneck -16.68132781918395 -2.8232492737308905 -1.935605305797792
upperneck 20.055846109126843 -3.5600921821822626 1.526992732137255
head 9.123216772855086 -1.7396078414681693 0.3513445724307346
lclavicle -1.9523119754202365e-15 9.076245054290994e-16
lhumerus -35.28826338074198 4.897331261255622 81.91837274470828
lradius 24.185589198783077
lwrist 4.15676603145266
lhand -27.203535150869698 23.232880616851915
lfingers 7.12502
lthumb -0.40388320731866956 53.831774448252894
rclavicle -1.9542094016606027e-15 9.058769952819911e-16
rhumerus -27.937515240307935 -18.071400486356243 -80.29342561635619
rradius 25.71006993831994
rwrist 5.0307096176079344
rhand -17.73664304339647 22.72415786663322
rfingers 7.12502
rthumb 8.368573115430546 -7.265147276130946
94
root 0.2203817589902099 17.840099271732726 44.91933789138489 -4.2903456400820215 -3.263175993073271 -0.4554041654305503
lfemur -8.067768048732324 -2.720445256737045 -24.064784013412137
ltibia 32.095639321972754
lfoot -4.125905091125936 0.7324983402111314
ltoes -4.773925426596145
rfemur -15.570906051660575 2.3598276772360145 22.74180595412032
rtibia 47.567702583642905
rfoot -5.4823672728900394 -5.9940342489888465
rtoes 2.943863679959745
lowerback 10.072567564705418 0.8190929940895599 -0.33523844032504346
upperback 0.6371600409260828 1.893215532978823 0.8416435630303924
thorax -4.881085679418799 0.6734292095986316 0.8571743505175469
lowerneck -16.686833486629986 -2.832710477747067 -1.9363939166201152
upperneck 19.998129811244166 -3.5859168707368108 1.4871155281088444
head 9.104305174509685 -1.7490724040757861 0.3364232646479739
lclavicle -1.9523119754202365e-15 9.076245054290996e-16
lhumerus -33.610508708765266 3.448758682827097 82.38716371440523
lradius 24.454348694089873
lwrist 4.570791567148525
lhand -27.297404953481628 22.974968434132826
lfingers 7.12502
lthumb -0.4485627746483692 53.727896603021435
rclavicle -1.9542094016606027e-15 9.058769952819911e-16
rhumerus -28.533996165880264 -18.186154323350156 -80.13213120569458
rradius 25.507260077181922
rwrist 5.161344369503618
rhand -17.67972188009034 22.847554924369614
rfingers 7.12502
rthumb 8.374055040192331 -7.257803697071854
95
root 0.21290631984351327 17.822960256607036 45.662543622499385 -4.07248216270873 -2.4731664449864024 0.06772909186152498
lfemur -5.881929065849443 -3.233630695275185 -24.859771839674927
ltibia 30.517960070919642
lfoot -4.379772515004422 0.6381315651751445
ltoes -4.951479034709759
rfemur -18.362342219951163 2.361629712042859 22.000724008985564
rtibia 46.11618794950613
rfoot -5.7966804642064815 -6.073024171690583
rtoes 2.913692862958004
lowerback 10.087339949716164 0.6249732115652477 -0.6414966335889223
upperback 0.6942681762701557 1.5168778659027748 0.9148094671078874
thorax -4.844378248699965 0.5895977136107168 1.1816634327917295
lowerneck -16.67716462097101 -2.8440133972451425 -1.9362642950536546
upperneck 19.981432890216357 -3.596113370108907 1.498743454628051
head 9.091610429943273 -1.7595868056208888 0.32708563858138573
lclavicle -1.9523119754202365e-15 9.076245054290996e-16
lhumerus -31.67000115906075 1.8755454374606821 82.81335151607537
lradius 24.5793629619109
lwrist 4.974831454992973
lhand -27.194547661823197 23.239676381732778
lfingers 7.12502
lthumb -0.38979745665752863 53.86438734961673
rclavicle -1.9542094016606027e-15 9.058769952819911e-16
rhumerus -29.047297120409826 -18.17796072325006 -79.95440134151755
rradius 25.287221051945217
rwrist 5.283856366675884
rhand -17.61890432681621 22.98781706819559
rfingers 7.12502
rthumb 8.397821950702246 -7.207983746669367
